<svg xmlns="http://www.w3.org/2000/svg"  viewBox="0 0 72 72" width="64px" height="64px"><path d="M42.5,14C56.875,14,58,15.125,58,29.5v13C58,56.875,56.875,58,42.5,58h-13C15.125,58,14,56.875,14,42.5v-13	C14,15.125,15.125,14,29.5,14H42.5z M45.324,32.341c0.895-0.646,1.672-1.451,2.285-2.369c-1.248,0.567-2.629,0.721-2.629,0.721	s1.613-0.934,2.012-2.533c-0.884,0.525-1.864,0.906-2.907,1.112c-0.835-0.89-2.025-1.446-3.341-1.446	c-2.528,0-4.577,2.05-4.577,4.577c0,0.358,0.118,1.042,0.118,1.042s-5.524,0.033-9.435-4.783c0,0-0.602,0.805-0.619,2.302	c-0.029,2.538,2.036,3.809,2.036,3.809s-1.038,0.028-2.073-0.572c0.093,3.932,3.672,4.546,3.672,4.546s-1.156,0.222-2.067,0.079	c0.583,1.818,2.273,3.143,4.276,3.179c-1.566,1.227-3.54,1.96-5.685,1.96c-0.368,0-0.734-0.022-1.092-0.065	c1.063,1.15,4.432,2.056,7.017,2.056c8.419,0,13.022-6.974,13.022-13.023C45.337,32.736,45.333,32.538,45.324,32.341z"/></svg>